<?xml version="1.0" encoding="utf-8"?>
<!-- Generator: Adobe Illustrator 21.0.0, SVG Export Plug-In . SVG Version: 6.00 Build 0)  -->
<svg version="1.1" id="Слой_1" xmlns="http://www.w3.org/2000/svg" xmlns:xlink="http://www.w3.org/1999/xlink" x="0px" y="0px"
	 viewBox="0 0 1892 788" style="enable-background:new 0 0 1892 788;" xml:space="preserve">
<style type="text/css">
	.st0{fill:#FFFFFF;}
	.st1{fill:#6080FF;}
</style>
<g id="Слой_2">
	<path class="st0" d="M439.7,93.8h106.7l60.4,100l82.1-100h111.5L649.8,274.6l-8.9,97.3h-93.4l8.9-97.3L439.7,93.8z"/>
	<path class="st1" d="M1134.2,444c-14-12.4-32.1-18.6-54.2-18.6H902.2c-22.2,0-39.9,6.2-53.1,18.6c-13.3,12.4-20.7,27.5-22.2,45.5
		l-13.8,153.1c-1.9,18,4.3,33.1,18.5,45.5s32.3,18.5,54.5,18.5h177.7c22.2,0,39.8-6.2,52.9-18.5c13.1-12.4,20.6-27.5,22.5-45.5
		l13.8-153.1C1154.4,471.6,1148.2,456.4,1134.2,444z M1057.6,498.5l-12.4,135.1c-0.1,3.4-2.3,5.1-6.5,5.1H914c-4.2,0-6.2-1.7-6-5.1
		l10-109.7l-41.2-30.3h49.7c0.3,0,0.5-0.1,0.8-0.1H1052C1056.2,493.4,1058,495.1,1057.6,498.5z"/>
	<path class="st0" d="M1773.9,112.3c-13.9-12.4-31.8-18.5-53.7-18.5H1482l-25.6,278.1h93.4l8.2-91.2h45.3l71.8,91.2h107.2
		l-80.8-91.2h1.9c27,0,47.2-6.2,60.7-18.7s21.1-27.4,22.9-44.6l5.4-60.3C1794,139.6,1787.9,124.7,1773.9,112.3z M1698.1,166
		l-4.1,45.6c-0.1,3.3-2.3,5-6.4,5h-123.4l2.5-27.4l-38.2-28.2h40.8v-0.1h123.4C1696.7,161,1698.5,162.7,1698.1,166z"/>
	<path class="st1" d="M414.4,443.8c-14-12.4-32.1-18.6-54.2-18.6H192.1c-22.2,0-39.9,6.2-53.1,18.6c-13.3,12.4-20.7,27.5-22.2,45.5
		l-3.7,43.7c-1.9,18,4.3,33.1,18.5,45.5s32.3,18.5,54.5,18.5h136.8c4.2,0,6,1.7,5.6,5.1l-2.9,31.2c-0.1,3.4-2.3,5.1-6.5,5.1H203.8
		c-4.2,0-6.2-1.7-6-5.1l1.8-16h-94.4l-2.2,25c-1.9,18,4.3,33.1,18.5,45.5s32.3,18.5,54.5,18.5h170.5c22.2,0,39.4-6.2,51.7-18.5
		c12.3-12.4,19.4-27.5,21.3-45.5l3.7-43.7c1.9-18-4.3-33.1-18.5-45.5s-32.3-18.5-54.5-18.5H213.4c-4.2,0-6.2-1.7-6-5.1l0.9-9.8
		l-35.9-26.4h44c0.3,0,0.5-0.1,0.8-0.1h115.1c4.2,0,6,1.7,5.6,5.1l-1.3,16H431l2.2-25C434.7,471.4,428.4,456.2,414.4,443.8z"/>
	<path class="st1" d="M1169.5,706.4l25.9-281.2h94.4l-6.8,74.6l92-74.6h112.2L1360,526.4l110,180h-107.9l-72.3-125l-15.8,12.5
		l-10.2,112.5H1169.5z"/>
	<path class="st0" d="M430.7,104.6c-8.2-7.2-18.7-10.8-31.3-10.8h-213c-21.9,0-38.6,6.1-50.2,18.3c-11.5,12.2-18.1,27.2-19.6,45
		L103,308.5c-1.8,17.8,4.2,32.8,18.3,45c14,12.2,32,18.3,53.9,18.3h198.6c12.7,0,23.8-3.6,33.4-10.8c9.6-7.2,14.8-16,15.8-26.3
		l5.5-62.2h-93.4l-2.7,29c-0.1,2.1-1.4,3.1-3.9,3.1H202.7c-4.1,0-6.1-1.7-6-5L206.8,190l-39.4-29h47.7c0.3,0,0.5-0.1,0.8-0.1h125.8
		c2.5,0,3.6,1,3.2,3.1l-2.2,29H436l5.5-62.2C442.5,120.6,438.9,111.8,430.7,104.6z"/>
	<polygon class="st1" points="707,425.3 697.1,530.7 558,530.7 567.8,425.3 473.4,425.3 447.5,706.4 541.9,706.4 549.3,625 
		513.6,598.7 551.7,598.7 551.7,598.7 690.9,598.7 681.1,706.4 775.5,706.4 801.3,425.3 	"/>
	<path class="st0" d="M1452.1,93.8h-253.6c-19.1,0-33.2,11.3-34.7,27.8l-18.3,198.8c-2.4,25.5,25.3,51.5,54.9,51.5h226.2l6.2-67.2
		h-192.4l2.1-22.7l-28.5-21h59.9l0,0h141.5l5.2-56.4h-171l1.5-16.4l-36.8-27.1h39.3V161H1446L1452.1,93.8z"/>
	<path class="st1" d="M1792.6,425.5h-256.4c-19.3,0-33.6,11.4-35.1,28.1l-18.5,201c-2.4,25.8,25.6,52.1,55.5,52.1h228.7l6.3-67.9
		h-194.5l2.1-22.9l-28.8-21.2h60.6l0,0h143l5.2-57h-172.9l1.5-16.6l-37.2-27.4h39.8v-0.1h194.5L1792.6,425.5z"/>
	<path class="st0" d="M1115.7,129.3c-4.8-11.1-13.2-19.8-25.3-26.1c-12.1-6.3-26.4-9.5-42.9-9.5H824.1l-25.6,278.1h254.8
		c16.2,0,29.8-4.1,40.9-12.4c11-8.2,19.5-18.5,25.3-30.7s9-25.4,9.4-39.4s-1.9-27-7-38.8c-6-13.9-14.9-24.2-26.7-30.9
		c5.1-3.6,9.7-9,13.7-16.2s7-15.2,8.9-23.9c1.9-8.8,2.8-17.6,2.6-26.5C1120.3,144.2,1118.7,136.3,1115.7,129.3z M1033.3,279.2
		l-0.7,6.2c-0.3,5.2-3,9.7-8,13.5c-5,3.9-10.8,5.8-17.5,5.8h-109l2.4-25l-27.3-20.1h29.2v-0.1h109.1c10.5,0,17.3,3.7,20.6,11.2
		C1033,273,1033.4,275.9,1033.3,279.2z M1026.3,180.3l-0.5,5.4c-0.5,5.4-3.3,10-8.3,13.9s-10.8,5.8-17.5,5.8h-92.9L909,184
		l-31.5-23.2H911v-0.2h92.9c10.5,0,17.5,4.1,21.1,12.4C1026.2,175.8,1026.7,178.3,1026.3,180.3z"/>
</g>
<g id="Слой_1_1_">
</g>
</svg>
