<?xml version="1.0" encoding="utf-8"?>
<!-- Generator: Adobe Illustrator 21.0.0, SVG Export Plug-In . SVG Version: 6.00 Build 0)  -->
<svg version="1.1" id="Capa_1" xmlns="http://www.w3.org/2000/svg" xmlns:xlink="http://www.w3.org/1999/xlink" x="0px" y="0px"
	 viewBox="0 0 512 512" style="enable-background:new 0 0 512 512;" xml:space="preserve">
<style type="text/css">
	.st0{fill:#FF9838;}
	.st1{fill:#FF8709;}
	.st2{fill:#FFCB5B;}
	.st3{fill:#8BCAFF;}
	.st4{fill:#F7B737;}
</style>
<g>
	<g>
		<path class="st0" d="M495.6,197L283.7,431.7c-14.8,16.5-40.6,16.5-55.3,0L16.4,197L212.1,64.4h91.5L495.6,197z"/>
		<path class="st1" d="M486.1,188.7L283.7,414.4c-14.8,16.5-40.6,16.5-55.3,0L25.9,188.7c-2.2-2.5-4.1-5.2-5.5-8.1
			c-6.7,13.3-4.9,29.9,5.5,41.6l202.4,225.8c5.4,6,12.2,9.8,19.5,11.4l7.9-15.3l7.9,15.4c7.5-1.5,14.6-5.4,20.1-11.6l202.4-225.8
			c10.4-11.6,12.3-28.2,5.5-41.6C490.1,183.4,488.3,186.2,486.1,188.7L486.1,188.7z"/>
		<g>
			<path class="st2" d="M137.2,196.8l74.9-132.5h-69.4c-10.3,0-20.2,4.3-27.2,11.8L26.4,172c-6.5,7-9.8,15.9-9.9,24.8L137.2,196.8
				L137.2,196.8z"/>
			<path class="st3" d="M16.4,196.9v0.2V196.9z"/>
		</g>
		<g>
			<path class="st3" d="M495.6,197.1c0-0.1,0-0.1,0-0.2V197.1z"/>
			<path class="st2" d="M374.8,196.8h120.7c-0.1-8.9-3.4-17.8-9.9-24.8l-89.1-95.8c-7-7.6-16.9-11.8-27.2-11.8h-65.7L374.8,196.8z"
				/>
		</g>
		<path class="st2" d="M374.8,196.8H137.2l92.1,218.6l18.5,27.7h16.4l19-28.9L374.8,196.8z"/>
		<path class="st4" d="M229.3,415.4l18.5,43.9c5.4,1.2,11,1.2,16.4,0l18.5-43.9C268.1,430.5,243.9,430.5,229.3,415.4z"/>
	</g>
</g>
</svg>
