<?xml version="1.0" encoding="utf-8"?>
<!-- Generator: Adobe Illustrator 24.0.2, SVG Export Plug-In . SVG Version: 6.00 Build 0)  -->
<svg version="1.1" id="Слой_3" xmlns="http://www.w3.org/2000/svg" xmlns:xlink="http://www.w3.org/1999/xlink" x="0px" y="0px"
	 width="32px" height="13px" viewBox="0 0 32 13" style="enable-background:new 0 0 32 13;" xml:space="preserve">
<path style="fill:#272727;" d="M9.8428669,3.2318344c1.8669701-1.0765858,3.7339401-2.1531725,5.6009102-3.2297583
	c1.8725319,1.0765858,3.7450638,2.1531725,5.6175957,3.2297583v6.5294113l-5.6139336,3.2352943L9.8428669,9.7612457V3.2318344z"/>
<path style="fill:#9933FF;" d="M15.4610291,1.3626299L15.4632349,0l5.6218214,3.2352943
	c0.0004101,2.171711,0.0008202,4.3434215,0.0012302,6.515132c-0.3858547-0.2194614-0.7717113-0.4389229-1.1575661-0.6583853
	l0.0014267-5.2280703L15.4610291,1.3626299z"/>
<path style="fill:#9933FF;" d="M19.9481144,9.0520592c0.3793907,0.232789,0.7587814,0.4655781,1.1381721,0.6983671
	l-3.5062027,2.0156498c-0.1984921-0.3400211-0.3969841-0.6800423-0.5954781-1.0200624
	C17.9724426,10.1813622,18.9602795,9.6167107,19.9481144,9.0520592z"/>
<path style="fill:#FFFFFF;" d="M13.5121107,5.4719725V4.1321802h4.2574396v1.1017299L15.64083,9.1884766h-1.940484
	c0.7021914-1.2369895,1.4043827-2.4739785,2.1065741-3.710968C15.0419836,5.4756632,14.2770472,5.4738178,13.5121107,5.4719725z"/>
</svg>
